<?xml version="1.0" standalone="no"?><!DOCTYPE svg PUBLIC "-//W3C//DTD SVG 1.1//EN" "http://www.w3.org/Graphics/SVG/1.1/DTD/svg11.dtd"><svg t="1641824867611" class="icon" viewBox="0 0 1024 1024" version="1.1" xmlns="http://www.w3.org/2000/svg" p-id="5041" xmlns:xlink="http://www.w3.org/1999/xlink" width="200" height="200"><defs><style type="text/css"></style></defs><path d="M259.122 1008.87H36.404C16.298 1008.87 0 992.572 0 972.468V51.526C0 31.422 16.298 15.124 36.404 15.124h222.718c20.104 0 36.404 16.298 36.404 36.404v920.942c-0.002 20.102-16.3 36.4-36.404 36.4z" fill="#FFAF40" p-id="5042"></path><path d="M295.52 343.618v628.86c0 20.1-16.3 36.4-36.4 36.4H36.4c-20.1 0-36.4-16.3-36.4-36.4v-185.18c156.44-94.262 268.1-255.302 295.52-443.68z" fill="#FF993A" p-id="5043"></path><path d="M147.762 851.762c-27.202 0-49.254-22.052-49.254-49.254V467.316c0-27.202 22.052-49.254 49.254-49.254 27.202 0 49.254 22.052 49.254 49.254v335.192c0 27.202-22.052 49.254-49.254 49.254z" fill="#706C64" p-id="5044"></path><path d="M197.016 562.812v-47.908c0-27.202-22.052-49.254-49.254-49.254-27.202 0-49.254 22.052-49.254 49.254v47.908c0 27.202 22.052 49.254 49.254 49.254 27.202 0 49.254-22.052 49.254-49.254z" fill="#8F8B81" p-id="5045"></path><path d="M49.254 519.456C22.052 519.456 0 497.404 0 470.202V135.01c0-27.202 22.052-49.254 49.254-49.254 27.202 0 49.254 22.052 49.254 49.254v335.192c0 27.202-22.052 49.254-49.254 49.254z" fill="#FFC751" p-id="5046"></path><path d="M0 348.596v59.646c0 27.202 22.052 49.254 49.254 49.254 27.202 0 49.254-22.052 49.254-49.254v-59.646c0-27.202-22.052-49.254-49.254-49.254C22.052 299.34 0 321.392 0 348.596z" fill="#FFE059" p-id="5047"></path><path d="M197.02 599.436v203.08c0 27.2-22.06 49.24-49.26 49.24s-49.26-22.04-49.26-49.24v-88.7a625.788 625.788 0 0 0 98.52-114.38z" fill="#595751" p-id="5048"></path><path d="M0 149.218h295.524v47.606H0zM0 233.79h295.524v47.606H0z" fill="#FFE059" p-id="5049"></path><path d="M610.548 694.652h-80.366c-17.114 0-30.986-13.872-30.986-30.986V61.786c0-17.114 13.872-30.986 30.986-30.986h80.366c17.114 0 30.986 13.872 30.986 30.986v601.88c0 17.114-13.874 30.986-30.986 30.986z" fill="#8F6BDD" p-id="5050"></path><path d="M641.524 163.556V61.786c0-17.114-13.872-30.986-30.986-30.986h-80.366c-17.114 0-30.986 13.872-30.986 30.986v101.77z" fill="#FFC751" p-id="5051"></path><path d="M641.52 61.776v101.78h-142.34v-23.6h0.06c58.18 0 105.34-47.16 105.34-105.34 0-1.28-0.02-2.56-0.08-3.82h6.04c17.12 0 30.98 13.882 30.98 30.98z" fill="#FFAF40" p-id="5052"></path><path d="M641.534 390.696v272.96c0 17.12-13.88 31-31 31h-80.36c-17.12 0-30.98-13.88-30.98-31v-40.6c74.32-54.76 126.88-137.34 142.34-232.36z" fill="#8042E0" p-id="5053"></path><path d="M641.534 489.916v173.74c0 17.12-13.88 31-31 31h-78.18c56.66-53.24 96.14-124.558 109.18-204.74z" fill="#772DBD" p-id="5054"></path><path d="M537.69 476.642c-21.262 0-38.496-17.236-38.496-38.496V269.54c0-21.262 17.236-38.496 38.496-38.496 21.262 0 38.496 17.236 38.496 38.496v168.606c0 21.262-17.236 38.496-38.496 38.496z" fill="#AB97F2" p-id="5055"></path><path d="M576.186 368.36v-54.282c0-21.262-17.236-38.496-38.496-38.496-21.262 0-38.496 17.236-38.496 38.496v54.282c0 21.262 17.236 38.496 38.496 38.496 21.26 0.002 38.496-17.234 38.496-38.496z" fill="#C3B9F9" p-id="5056"></path><path d="M752.886 694.652H672.52c-17.114 0-30.986-13.872-30.986-30.986V61.786c0-17.114 13.872-30.986 30.986-30.986h80.366c17.114 0 30.986 13.872 30.986 30.986v601.88c0 17.114-13.874 30.986-30.986 30.986z" fill="#29E088" p-id="5057"></path><path d="M783.866 203.18V61.786c0-17.114-13.872-30.986-30.986-30.986h-80.366c-17.114 0-30.986 13.872-30.986 30.986v141.394z" fill="#FFC751" p-id="5058"></path><path d="M783.86 61.776v141.4h-142.34v-11.58c62.46-11.54 109.76-66.28 109.76-132.08 0-9.86-1.06-19.46-3.08-28.72h4.68c17.12 0 30.98 13.882 30.98 30.98z" fill="#FFAF40" p-id="5059"></path><path d="M895.224 694.652h-80.366c-17.114 0-30.986-13.872-30.986-30.986V61.786c0-17.114 13.872-30.986 30.986-30.986h80.366c17.114 0 30.986 13.872 30.986 30.986v601.88c0 17.114-13.872 30.986-30.986 30.986z" fill="#48ACFF" p-id="5060"></path><path d="M926.21 249.126v-187.34c0-17.114-13.872-30.986-30.986-30.986h-80.366c-17.114 0-30.986 13.872-30.986 30.986v187.34z" fill="#FFC751" p-id="5061"></path><path d="M926.22 61.776v187.34h-142.34v-5.92c62.86-18.76 108.68-77.04 108.68-146.02 0-23.8-5.46-46.32-15.18-66.38h17.84c17.12 0 31 13.882 31 30.98z" fill="#FFAF40" p-id="5062"></path><path d="M926.22 390.696v272.96c0 17.12-13.88 31-31 31h-80.36c-17.12 0-30.98-13.88-30.98-31v-40.6c74.32-54.76 126.88-137.34 142.34-232.36z" fill="#229BFF" p-id="5063"></path><path d="M926.22 489.916v173.74c0 17.12-13.88 31-31 31h-78.18c56.66-53.24 96.14-124.558 109.18-204.74z" fill="#037CFF" p-id="5064"></path><path d="M1014.42 952.988A32.704 32.704 0 0 1 1024 976.14c0 18.082-14.65 32.732-32.732 32.732H229.762c-43.39 0-82.66-17.586-111.076-46.022-28.438-28.416-46.022-67.686-46.022-111.076 0-86.78 70.34-157.12 157.098-157.12h761.506c18.08 0 32.732 14.672 32.732 32.732 0 18.082-14.65 32.732-32.732 32.732H490.44c-50.532 0-91.636 41.124-91.636 91.656s41.104 91.636 91.636 91.636h500.83a32.688 32.688 0 0 1 23.15 9.578z" fill="#7CBAF7" p-id="5065"></path><path d="M1014.42 952.988A32.704 32.704 0 0 1 1024 976.14c0 18.082-14.65 32.732-32.732 32.732h-520.38c-43.39 0-82.66-17.586-111.076-46.022-28.438-28.416-46.022-67.686-46.022-111.076 0-86.78 70.34-157.12 157.098-157.12h520.38c18.08 0 32.732 14.672 32.732 32.732 0 18.082-14.65 32.732-32.732 32.732H490.44c-50.532 0-91.636 41.124-91.636 91.656s41.104 91.636 91.636 91.636h500.83a32.688 32.688 0 0 1 23.15 9.578z" fill="#229BFF" p-id="5066"></path><path d="M801.666 694.652H505.6c-18.078 0-32.732 14.654-32.732 32.732s14.654 32.732 32.732 32.732h296.066c18.078 0 32.732-14.654 32.732-32.732 0-18.076-14.654-32.732-32.732-32.732z" fill="#7CBAF7" p-id="5067"></path><path d="M653.802 694.652h-73.704c-18.078 0-32.732 14.654-32.732 32.732s14.654 32.732 32.732 32.732h73.704c18.078 0 32.732-14.654 32.732-32.732-0.002-18.076-14.656-32.732-32.732-32.732z" fill="#A9CFFC" p-id="5068"></path><path d="M866.338 943.408h-176.066c-18.078 0-32.732 14.654-32.732 32.732s14.654 32.732 32.732 32.732h176.066c18.078 0 32.732-14.654 32.732-32.732-0.002-18.078-14.656-32.732-32.732-32.732z" fill="#7CBAF7" p-id="5069"></path><path d="M490.442 943.408c-50.532 0-91.644-41.11-91.644-91.642s41.112-91.644 91.644-91.644h499.508v183.286z" fill="#F1EEE0" p-id="5070"></path><path d="M989.95 943.408H490.442c-50.532 0-91.644-41.11-91.644-91.642h591.15v91.642z" fill="#D8D4C9" p-id="5071"></path><path d="M499.196 174.814V150.366h142.338v24.448z" fill="#706C64" p-id="5072"></path><path d="M499.2 106.876h142.34v24.44H499.2z" fill="#FFFDF3" p-id="5073"></path><path d="M641.54 150.356h142.34v24.46h-142.34zM641.54 106.876h142.34v24.44h-142.34z" fill="#FFFDF3" p-id="5074"></path><path d="M641.534 218.304V193.856h142.338v24.448z" fill="#706C64" p-id="5075"></path><path d="M783.88 150.356h142.32v24.46h-142.32zM783.88 106.876h142.32v24.44h-142.32z" fill="#FFFDF3" p-id="5076"></path><path d="M783.872 261.794v-24.448h142.338v24.448z" fill="#706C64" p-id="5077"></path><path d="M783.88 193.856h142.32v24.44h-142.32z" fill="#FFFDF3" p-id="5078"></path><path d="M513.924 680.154l-79.146 13.956c-16.854 2.972-32.924-8.282-35.896-25.134L294.368 76.238c-2.972-16.854 8.282-32.924 25.134-35.896l79.146-13.956c16.854-2.972 32.924 8.282 35.896 25.134l104.516 592.736c2.97 16.856-8.282 32.928-25.136 35.898z" fill="#FE255F" p-id="5079"></path><path d="M513.92 680.158l-79.14 13.96c-16.86 2.96-32.92-8.28-35.9-25.14l-8.68-49.24c63.4-35.92 107.52-101.88 113.06-178.54l35.8 203.06c2.98 16.86-8.28 32.92-25.14 35.9z" fill="#E01152" p-id="5080"></path><path d="M513.92 680.158l-79.14 13.96c-7.72 1.36-15.28-0.26-21.48-4.04 58.46-37.64 98.38-101.62 102.96-175.18l22.8 129.36c2.98 16.86-8.28 32.92-25.14 35.9z" fill="#C40047" p-id="5081"></path><path d="M447.04 122.456l-140.18 24.7-12.5-70.92c-2.96-16.86 8.28-32.92 25.14-35.9l79.14-13.94c16.86-2.98 32.94 8.28 35.9 25.12z" fill="#FFC751" p-id="5082"></path><path d="M447.04 122.456l-140.18 24.7-6.22-35.3c46.94-2.46 85-38.3 90.92-84.22l7.08-1.24c16.86-2.98 32.94 8.28 35.9 25.12z" fill="#FFAF40" p-id="5083"></path><path d="M306.756 147.072l-4.254-24.08 140.202-24.768 4.254 24.08z" fill="#706C64" p-id="5084"></path><path d="M822.376 536.642c-21.262 0-38.496-17.236-38.496-38.496V329.54c0-21.262 17.236-38.496 38.496-38.496 21.262 0 38.496 17.236 38.496 38.496v168.606c0.002 21.262-17.234 38.496-38.496 38.496z" fill="#7CBAF7" p-id="5085"></path><path d="M860.874 428.36v-54.282c0-21.262-17.236-38.496-38.496-38.496-21.262 0-38.496 17.236-38.496 38.496v54.282c0 21.262 17.236 38.496 38.496 38.496 21.26 0.002 38.496-17.234 38.496-38.496z" fill="#A9CFFC" p-id="5086"></path><path d="M783.876 390.696v272.96c0 17.12-13.88 31-31 31h-80.36c-17.12 0-30.98-13.88-30.98-31v-40.6c74.32-54.76 126.88-137.34 142.34-232.36z" fill="#0CC166" p-id="5087"></path><path d="M783.876 489.916v173.74c0 17.12-13.88 31-31 31h-78.18c56.66-53.24 96.14-124.558 109.18-204.74z" fill="#04A550" p-id="5088"></path><path d="M680.034 489.916c-21.262 0-38.496-17.236-38.496-38.496v-168.606c0-21.262 17.236-38.496 38.496-38.496 21.262 0 38.496 17.236 38.496 38.496v168.606c0 21.262-17.236 38.496-38.496 38.496z" fill="#79FF79" p-id="5089"></path><path d="M718.53 418.998v-24.282c0-21.262-17.236-38.496-38.496-38.496-21.262 0-38.496 17.236-38.496 38.496v24.282c0 21.262 17.236 38.496 38.496 38.496 21.26 0.002 38.496-17.234 38.496-38.496z" fill="#C2FFC2" p-id="5090"></path><path d="M783.86 106.876v24.44h-53.36c4.86-7.66 8.96-15.84 12.2-24.44zM715.9 150.356h67.96v24.46h-97.96a134.528 134.528 0 0 0 30-24.46zM926.2 106.876v24.44h-37.48c1.82-7.92 3.02-16.08 3.54-24.44zM883.02 150.356h43.18v24.46h-54.88a150.92 150.92 0 0 0 11.7-24.46zM857.98 193.856h68.22v24.44h-93.52a153.92 153.92 0 0 0 25.3-24.44z" fill="#FFF7C7" p-id="5091"></path><path d="M641.52 106.876v24.44h-100.46a105.232 105.232 0 0 0 34.82-24.44z" fill="#FFF7C7" p-id="5092"></path><path d="M443.654 454.57l-38.398-217.754c-4.184-23.722-28.142-38.544-51.202-31.584l-0.784 0.236c-19.548 5.91-31.634 25.452-28.088 45.564l38.408 217.81c4.376 24.82 30.232 39.576 53.818 30.692l0.774-0.292c18.13-6.828 28.836-25.592 25.472-44.672z" fill="#FC709B" p-id="5093"></path><path d="M417.96 308.864l-3.178-18.02c-4.068-23.072-26.884-37.742-49.598-32.004l-0.79 0.2c-20.418 5.144-33.346 25.25-29.69 45.986l3.18 18.032c4.112 23.314 27.352 38.048 50.204 31.86l0.788-0.214c20.092-5.444 32.7-25.34 29.084-45.84z" fill="#F7A6C1" p-id="5094"></path><path d="M229.76 694.658c-86.76 0-157.1 70.34-157.1 157.12a156.596 156.596 0 0 0 9.002 52.498c9.836 27.704 45.772 34.898 65.992 13.556l0.554-0.586c10.086-10.644 13.654-26.052 8.79-39.884a77.084 77.084 0 0 1-4.316-27.412c0.972-42.108 36.392-75.292 78.512-75.292H278.6c22.092 0 40-17.908 40-40s-17.908-40-40-40z" fill="#A9CFFC" p-id="5095"></path><path d="M157.406 825.324c7.95-21.304 25.222-38.1 46.69-45.904 15.994-5.814 26.81-20.776 26.506-37.792l-0.028-1.53c-0.48-26.86-27.048-45.59-52.424-36.768-44.262 15.39-79.52 50.022-95.76 93.886-9.73 26.276 9.994 54.108 38.006 53.468l0.98-0.022c16.036-0.364 30.422-10.31 36.03-25.338z" fill="#CBE1FF" p-id="5096"></path><path d="M0 149.218h98.508v47.606H0zM0 233.79h98.508v47.606H0z" fill="#FFF370" p-id="5097"></path></svg>